<?xml version="1.0" encoding="UTF-8" standalone="no"?>
<svg
   xmlns:dc="http://purl.org/dc/elements/1.1/"
   xmlns:cc="http://creativecommons.org/ns#"
   xmlns:rdf="http://www.w3.org/1999/02/22-rdf-syntax-ns#"
   xmlns:svg="http://www.w3.org/2000/svg"
   xmlns="http://www.w3.org/2000/svg"
   xmlns:sodipodi="http://sodipodi.sourceforge.net/DTD/sodipodi-0.dtd"
   xmlns:inkscape="http://www.inkscape.org/namespaces/inkscape"
   viewBox="0 0 241.49263 181.41733"
   width="241.49263"
   height="181.41733"
   version="1.1"
   id="svg22"
   sodipodi:docname="docker.svg"
   inkscape:version="0.92.4 (5da689c313, 2019-01-14)">
  <metadata
     id="metadata28">
    <rdf:RDF>
      <cc:Work
         rdf:about="">
        <dc:format>image/svg+xml</dc:format>
        <dc:type
           rdf:resource="http://purl.org/dc/dcmitype/StillImage" />
        <dc:title></dc:title>
      </cc:Work>
    </rdf:RDF>
  </metadata>
  <defs
     id="defs26" />
  <sodipodi:namedview
     pagecolor="#ffffff"
     bordercolor="#666666"
     borderopacity="1"
     objecttolerance="10"
     gridtolerance="10"
     guidetolerance="10"
     inkscape:pageopacity="0"
     inkscape:pageshadow="2"
     inkscape:window-width="1920"
     inkscape:window-height="1040"
     id="namedview24"
     showgrid="false"
     fit-margin-top="0"
     fit-margin-left="0"
     fit-margin-right="0"
     fit-margin-bottom="0"
     inkscape:zoom="1.7383042"
     inkscape:cx="218.33011"
     inkscape:cy="104.30966"
     inkscape:window-x="1050"
     inkscape:window-y="0"
     inkscape:window-maximized="1"
     inkscape:current-layer="svg22" />
  <g
     id="g845"
     transform="matrix(5.0393492,0,0,5.0393492,-0.396125,-25.196746)">
    <path
       id="path2"
       d="m 47.527,19.847 c -0.13,-0.102 -1.345,-1.007 -3.908,-1.007 -0.677,0.003 -1.352,0.06 -2.019,0.171 -0.496,-3.354 -3.219,-4.93 -3.345,-5.003 l -0.688,-0.392 -0.453,0.644 c -0.567,0.866 -1.068,1.76 -1.311,2.763 -0.459,1.915 -0.18,3.713 0.806,5.25 C 35.417,22.928 33.386,22.986 33,23 H 1.582 c -0.826,0.001 -1.496,0.66 -1.501,1.474 -0.037,2.733 0.353,5.553 1.306,8.119 1.089,2.818 2.71,4.894 4.818,6.164 2.362,1.427 6.2,2.243 10.551,2.243 1.965,0.006 3.927,-0.169 5.859,-0.524 2.686,-0.487 5.271,-1.413 7.647,-2.74 1.958,-1.119 3.72,-2.542 5.219,-4.215 2.505,-2.798 3.997,-5.913 5.107,-8.682 0.149,0 0.298,0 0.442,0 2.743,0 4.429,-1.083 5.359,-1.99 0.618,-0.579 1.101,-1.284 1.414,-2.065 L 48,20.216 Z"
       inkscape:connector-curvature="0"
       style="fill:#2395ec" />
    <path
       id="path4"
       d="M 8,22 H 5 C 4.448,22 4,21.552 4,21 v -3 c 0,-0.552 0.448,-1 1,-1 h 3 c 0.552,0 1,0.448 1,1 v 3 c 0,0.552 -0.448,1 -1,1 z"
       inkscape:connector-curvature="0"
       style="fill:#2395ec" />
    <path
       id="path6"
       d="m 14,22 h -3 c -0.552,0 -1,-0.448 -1,-1 v -3 c 0,-0.552 0.448,-1 1,-1 h 3 c 0.552,0 1,0.448 1,1 v 3 c 0,0.552 -0.448,1 -1,1 z"
       inkscape:connector-curvature="0"
       style="fill:#2395ec" />
    <path
       id="path8"
       d="m 20,22 h -3 c -0.552,0 -1,-0.448 -1,-1 v -3 c 0,-0.552 0.448,-1 1,-1 h 3 c 0.552,0 1,0.448 1,1 v 3 c 0,0.552 -0.448,1 -1,1 z"
       inkscape:connector-curvature="0"
       style="fill:#2395ec" />
    <path
       id="path10"
       d="m 26,22 h -3 c -0.552,0 -1,-0.448 -1,-1 v -3 c 0,-0.552 0.448,-1 1,-1 h 3 c 0.552,0 1,0.448 1,1 v 3 c 0,0.552 -0.448,1 -1,1 z"
       inkscape:connector-curvature="0"
       style="fill:#2395ec" />
    <path
       id="path12"
       d="m 14,16 h -3 c -0.552,0 -1,-0.448 -1,-1 v -3 c 0,-0.552 0.448,-1 1,-1 h 3 c 0.552,0 1,0.448 1,1 v 3 c 0,0.552 -0.448,1 -1,1 z"
       inkscape:connector-curvature="0"
       style="fill:#2395ec" />
    <path
       id="path14"
       d="m 20,16 h -3 c -0.552,0 -1,-0.448 -1,-1 v -3 c 0,-0.552 0.448,-1 1,-1 h 3 c 0.552,0 1,0.448 1,1 v 3 c 0,0.552 -0.448,1 -1,1 z"
       inkscape:connector-curvature="0"
       style="fill:#2395ec" />
    <path
       id="path16"
       d="m 26,16 h -3 c -0.552,0 -1,-0.448 -1,-1 v -3 c 0,-0.552 0.448,-1 1,-1 h 3 c 0.552,0 1,0.448 1,1 v 3 c 0,0.552 -0.448,1 -1,1 z"
       inkscape:connector-curvature="0"
       style="fill:#2395ec" />
    <path
       id="path18"
       d="M 26,10 H 23 C 22.448,10 22,9.552 22,9 V 6 c 0,-0.552 0.448,-1 1,-1 h 3 c 0.552,0 1,0.448 1,1 v 3 c 0,0.552 -0.448,1 -1,1 z"
       inkscape:connector-curvature="0"
       style="fill:#2395ec" />
    <path
       id="path20"
       d="m 32,22 h -3 c -0.552,0 -1,-0.448 -1,-1 v -3 c 0,-0.552 0.448,-1 1,-1 h 3 c 0.552,0 1,0.448 1,1 v 3 c 0,0.552 -0.448,1 -1,1 z"
       inkscape:connector-curvature="0"
       style="fill:#2395ec" />
  </g>
</svg>
